<svg xmlns="http://www.w3.org/2000/svg" xmlns:xlink="http://www.w3.org/1999/xlink" width="1718" zoomAndPan="magnify" viewBox="0 0 1288.5 1279.499967" height="1706" preserveAspectRatio="xMidYMid meet" version="1.0"><defs><g/><clipPath id="191f74ec20"><path d="M 0 0 L 1287.359375 0 L 1287.359375 1278.921875 L 0 1278.921875 Z M 0 0 " clip-rule="nonzero"/></clipPath><clipPath id="d9f57e8e92"><path d="M 0 0 L 1287.359375 0 L 1287.359375 1278.921875 L 0 1278.921875 Z M 0 0 " clip-rule="nonzero"/></clipPath><clipPath id="939f25b636"><rect x="0" width="1288" y="0" height="1279"/></clipPath><clipPath id="9033b40d20"><rect x="0" width="791" y="0" height="236"/></clipPath></defs><path fill="#ffffff" d="M 0 0 L 1288 0 L 1288 1279 L 0 1279 Z M 0 0 " fill-opacity="1" fill-rule="nonzero"/><g clip-path="url(#191f74ec20)"><g transform="matrix(1, 0, 0, 1, 0, 0)"><g clip-path="url(#939f25b636)"><g clip-path="url(#d9f57e8e92)"><path fill="#00ff84" d="M 0 0 L 1288.914062 0 L 1288.914062 1278.921875 L 0 1278.921875 Z M 0 0 " fill-opacity="1" fill-rule="nonzero"/></g></g></g></g><path fill="#000000" d="M 261.980469 388.394531 L 1038.054688 388.394531 L 1038.054688 580.394531 L 648.371094 580.394531 C 648.371094 580.394531 652.386719 631.625 689.550781 659.335938 C 719.222656 681.464844 759.019531 678.785156 759.019531 678.785156 L 1038.054688 678.785156 L 1038.054688 866.65625 L 772.355469 866.65625 C 772.355469 866.65625 665.058594 873.585938 582.949219 816.640625 C 472.175781 739.816406 460.183594 607.722656 460.183594 607.722656 L 460.183594 967.515625 L 261.980469 967.515625 Z M 261.980469 388.394531 " fill-opacity="1" fill-rule="nonzero"/><g transform="matrix(1, 0, 0, 1, 248, 221)"><g clip-path="url(#9033b40d20)"><g fill="#111111" fill-opacity="1"><g transform="translate(1.325769, 152.197306)"><g><path d="M 11.6875 0 L 56.921875 -150.234375 L 131.703125 -150.234375 L 176.9375 0 L 146.21875 0 L 128.703125 -56.25 L 60.265625 -56.25 L 42.390625 0 Z M 65.09375 -82.125 L 123.515625 -82.125 L 110.171875 -131.703125 L 78.453125 -131.703125 Z M 65.09375 -82.125 "/></g></g></g><g fill="#111111" fill-opacity="1"><g transform="translate(189.276422, 152.197306)"><g><path d="M 10.015625 0 L 66.4375 0 C 75.445312 0 84.066406 -0.832031 92.296875 -2.5 C 100.535156 -4.164062 107.878906 -7.054688 114.328125 -11.171875 C 120.785156 -15.296875 125.878906 -21.003906 129.609375 -28.296875 C 133.335938 -35.585938 135.203125 -44.796875 135.203125 -55.921875 L 135.203125 -95.8125 C 135.203125 -106.9375 133.335938 -116.0625 129.609375 -123.1875 C 125.878906 -130.3125 120.785156 -135.820312 114.328125 -139.71875 C 107.878906 -143.613281 100.535156 -146.3125 92.296875 -147.8125 C 84.066406 -149.3125 75.445312 -150.0625 66.4375 -150.0625 L 10.015625 -150.0625 Z M 36.71875 -22.53125 L 36.71875 -127.53125 L 66.4375 -127.53125 C 75 -127.53125 82.394531 -126.691406 88.625 -125.015625 C 94.863281 -123.347656 99.679688 -120.234375 103.078125 -115.671875 C 106.472656 -111.109375 108.171875 -104.488281 108.171875 -95.8125 L 108.171875 -55.921875 C 108.171875 -47.347656 106.472656 -40.613281 103.078125 -35.71875 C 99.679688 -30.820312 94.863281 -27.398438 88.625 -25.453125 C 82.394531 -23.503906 75 -22.53125 66.4375 -22.53125 Z M 36.71875 -22.53125 "/></g></g></g><g fill="#111111" fill-opacity="1"><g transform="translate(333.82817, 152.197306)"><g><path d="M 3.34375 0 L 3.34375 -150.0625 L 64.265625 -150.0625 L 105.5 -6.671875 L 109.171875 -6.671875 L 150.390625 -150.0625 L 207.984375 -150.0625 L 207.984375 0 L 179.609375 0 L 179.609375 -143.390625 L 174.9375 -143.390625 L 134.203125 0 L 80.453125 0 L 39.734375 -143.390625 L 33.390625 -143.390625 L 33.390625 0 Z M 3.34375 0 "/></g></g></g><g fill="#111111" fill-opacity="1"><g transform="translate(544.47984, 152.197306)"><g><path d="M 10.015625 0 L 93.984375 0 L 93.984375 -24.03125 L 65.765625 -24.03125 L 65.765625 -125.859375 L 93.984375 -125.859375 L 93.984375 -150.0625 L 10.015625 -150.0625 L 10.015625 -125.859375 L 38.21875 -125.859375 L 38.21875 -24.03125 L 10.015625 -24.03125 Z M 10.015625 0 "/></g></g></g><g fill="#111111" fill-opacity="1"><g transform="translate(647.802626, 152.197306)"><g><path d="M 6.671875 0 L 6.671875 -150.0625 L 59.25 -150.0625 L 105.5 -6.671875 L 110.5 -6.671875 L 110.5 -150.0625 L 135.546875 -150.0625 L 135.546875 0 L 78.625 0 L 37.890625 -143.390625 L 33.390625 -143.390625 L 33.390625 0 Z M 6.671875 0 "/></g></g></g></g></g></svg>