<svg xmlns="http://www.w3.org/2000/svg" xmlns:xlink="http://www.w3.org/1999/xlink" width="418" zoomAndPan="magnify" viewBox="0 0 313.5 92.999996" height="124" preserveAspectRatio="xMidYMid meet" version="1.0"><defs><g/><clipPath id="da8bc23d5c"><rect x="0" width="192" y="0" height="75"/></clipPath></defs><path fill="#f8f5f5" d="M 2.59375 15.664062 L 84.910156 15.664062 L 84.910156 36.03125 L 43.578125 36.03125 C 43.578125 36.03125 44.003906 41.464844 47.945312 44.40625 C 51.09375 46.75 55.3125 46.46875 55.3125 46.46875 L 84.910156 46.46875 L 84.910156 66.394531 L 56.730469 66.394531 C 56.730469 66.394531 45.347656 67.128906 36.640625 61.089844 C 24.890625 52.941406 23.617188 38.929688 23.617188 38.929688 L 23.617188 77.09375 L 2.59375 77.09375 Z M 2.59375 15.664062 " fill-opacity="1" fill-rule="nonzero"/><g transform="matrix(1, 0, 0, 1, 91, 9)"><g clip-path="url(#da8bc23d5c)"><g fill="#f8f5f5" fill-opacity="1"><g transform="translate(1.608031, 53.35003)"><g><path d="M 3.8125 0 L 3.8125 -36.015625 L 27.578125 -36.015625 L 27.578125 -26.75 L 14.203125 -26.75 L 14.203125 -19.703125 L 26.234375 -19.703125 L 26.234375 -10.703125 L 14.203125 -10.703125 L 14.203125 0 Z M 3.8125 0 "/></g></g></g><g fill="#f8f5f5" fill-opacity="1"><g transform="translate(30.933034, 53.35003)"><g><path d="M 3.8125 0 L 3.8125 -36.015625 L 14.203125 -36.015625 L 14.203125 -9.625 L 28.921875 -9.625 L 28.921875 0 Z M 3.8125 0 "/></g></g></g><g fill="#f8f5f5" fill-opacity="1"><g transform="translate(60.926849, 53.35003)"><g><path d="M 3.8125 0 L 3.8125 -36.015625 L 28.5 -36.015625 L 28.5 -27.625 L 14.09375 -27.625 L 14.09375 -22.375 L 27.109375 -22.375 L 27.109375 -14.046875 L 14.09375 -14.046875 L 14.09375 -8.484375 L 29.078125 -8.484375 L 29.078125 0 Z M 3.8125 0 "/></g></g></g><g fill="#f8f5f5" fill-opacity="1"><g transform="translate(92.10395, 53.35003)"><g><path d="M 1.078125 0 L 13.015625 -18.375 L 1.703125 -36.015625 L 13.328125 -36.015625 L 16.40625 -31.03125 L 19.8125 -25.625 L 23.15625 -31.03125 L 26.296875 -36.015625 L 37.875 -36.015625 L 26.59375 -18.46875 L 38.53125 0 L 26.390625 0 L 22.796875 -5.859375 L 19.8125 -10.65625 L 13.171875 0 Z M 1.078125 0 "/></g></g></g><g fill="#f8f5f5" fill-opacity="1"><g transform="translate(131.564094, 53.35003)"><g><path d="M 3.8125 0 L 3.8125 -36.015625 L 14.203125 -36.015625 L 14.203125 0 Z M 3.8125 0 "/></g></g></g><g fill="#f8f5f5" fill-opacity="1"><g transform="translate(149.364878, 53.35003)"><g><path d="M 0.25 0 L 14.25 -36.015625 L 24.546875 -36.015625 L 38.53125 0 L 27.46875 0 L 25.515625 -5.09375 L 13.21875 -5.09375 L 11.265625 0 Z M 15.390625 -12.703125 L 23.40625 -12.703125 L 19.390625 -23.875 Z M 15.390625 -12.703125 "/></g></g></g></g></g></svg>